<svg xmlns="http://www.w3.org/2000/svg" xmlns:xlink="http://www.w3.org/1999/xlink" width="1890" zoomAndPan="magnify" viewBox="0 0 1417.5 1417.500002" height="1890" preserveAspectRatio="xMidYMid meet" version="1.0"><defs><clipPath id="94bf02e1b5"><path d="M 2.957031 0.957031 L 1327.902344 0.957031 L 1327.902344 1325.902344 L 2.957031 1325.902344 Z M 2.957031 0.957031 " clip-rule="nonzero"/></clipPath><clipPath id="d401ca8da9"><rect x="0" width="1331" y="0" height="1327"/></clipPath></defs><g transform="matrix(1, 0, 0, 1, 43, 45)"><g clip-path="url(#d401ca8da9)"><g clip-path="url(#94bf02e1b5)"><path fill="#a16931" d="M 650.820312 773.171875 C 657.125 766.867188 667.359375 766.867188 673.660156 773.171875 C 679.964844 779.472656 679.964844 789.707031 673.660156 796.007812 L 581.632812 888.039062 C 575.328125 894.339844 565.09375 894.339844 558.792969 888.039062 L 512.765625 842.011719 C 506.460938 835.707031 506.460938 825.472656 512.765625 819.171875 C 519.066406 812.867188 529.300781 812.867188 535.605469 819.171875 L 570.210938 853.78125 Z M 996.746094 373.140625 L 996.746094 353.9375 C 996.746094 345.019531 1003.992188 337.777344 1012.90625 337.777344 C 1021.820312 337.777344 1029.066406 345.019531 1029.066406 353.9375 L 1029.066406 373.140625 L 1063.539062 373.140625 L 1063.539062 315.90625 L 962.269531 315.90625 L 962.269531 373.140625 Z M 946.113281 283.613281 L 958.179688 283.613281 L 958.179688 274.269531 C 958.179688 228.347656 1006.980469 198.101562 1048.105469 219.03125 C 1056.777344 223.445312 1064.320312 229.910156 1070.082031 237.746094 C 1075.335938 244.9375 1073.800781 255.011719 1066.609375 260.289062 C 1059.417969 265.542969 1049.34375 264.007812 1044.066406 256.816406 C 1027.070312 233.628906 990.496094 245.910156 990.496094 274.242188 L 990.496094 283.585938 L 1079.699219 283.585938 C 1088.613281 283.585938 1095.859375 290.832031 1095.859375 299.746094 L 1095.859375 389.296875 C 1095.859375 398.214844 1088.613281 405.457031 1079.699219 405.457031 L 946.113281 405.457031 C 937.195312 405.457031 929.953125 398.214844 929.953125 389.296875 L 929.953125 299.746094 C 929.953125 290.832031 937.195312 283.613281 946.113281 283.613281 Z M 26.035156 1011.28125 C 3.925781 1024.046875 -3.535156 1052.300781 9.148438 1074.195312 L 141.28125 1303.042969 C 153.96875 1324.996094 182.164062 1332.589844 204.195312 1319.878906 L 204.167969 1319.851562 L 257.632812 1288.984375 C 269.050781 1283.085938 277.265625 1271.910156 280.390625 1260.273438 C 285.828125 1239.941406 277.453125 1228.226562 268.242188 1212.253906 L 286.207031 1201.886719 L 523.996094 1258.011719 C 549.015625 1264.636719 573.09375 1262.832031 596.121094 1249.5 C 691.921875 1194.074219 788.285156 1139.347656 883.761719 1083.382812 L 883.789062 1083.40625 L 884.300781 1083.058594 C 904.339844 1070.964844 917.832031 1051.976562 923.488281 1030.914062 C 929.226562 1009.503906 926.882812 985.910156 915.058594 965.199219 C 898.816406 934.929688 867.144531 919.792969 834.179688 921.597656 L 839.621094 908.128906 C 841.074219 906.757812 872.449219 899.160156 876.949219 898.003906 C 892.839844 893.855469 903.773438 879.714844 903.773438 863.367188 L 903.773438 797.894531 C 903.773438 781.546875 892.839844 767.40625 876.949219 763.257812 C 872.449219 762.101562 841.074219 754.480469 839.621094 753.132812 L 831.511719 731.964844 L 822.195312 711.144531 C 822.25 709.367188 839.160156 681.492188 841.453125 677.613281 C 849.746094 663.5 847.375 645.132812 835.902344 634.222656 L 835.929688 634.199219 L 789.632812 587.898438 C 778.105469 576.371094 760.355469 574.082031 746.191406 582.378906 L 714.355469 601.070312 L 710.882812 601.152344 C 704.578125 597.917969 698.222656 594.957031 691.839844 592.316406 L 670.671875 584.210938 C 669.324219 582.78125 661.703125 551.378906 660.542969 546.882812 C 656.398438 530.992188 642.257812 520.054688 625.910156 520.054688 L 560.433594 520.054688 C 544.085938 520.054688 529.949219 530.992188 525.800781 546.882812 C 524.640625 551.378906 517.019531 582.757812 515.671875 584.210938 L 494.503906 592.289062 L 473.683594 601.609375 C 471.933594 601.554688 444.03125 584.640625 440.152344 582.351562 C 425.988281 574.03125 408.238281 576.347656 396.710938 587.875 L 350.414062 634.171875 C 338.886719 645.699219 336.597656 663.445312 344.894531 677.613281 L 363.585938 709.449219 L 363.691406 712.867188 L 363.664062 712.867188 C 360.539062 718.953125 357.578125 725.3125 354.859375 731.9375 L 354.832031 731.9375 C 352.21875 738.238281 349.820312 744.808594 347.613281 751.679688 C 347.398438 752.324219 347.101562 752.835938 346.75 753.1875 C 345.324219 754.53125 313.921875 762.15625 309.421875 763.3125 C 293.53125 767.460938 282.597656 781.601562 282.597656 797.949219 L 282.597656 863.421875 C 282.597656 879.769531 293.53125 893.910156 309.421875 898.058594 L 345.136719 907.347656 C 346.886719 907.808594 347.289062 908.722656 347.773438 910.230469 C 335.84375 907.644531 323.886719 907.511719 312.464844 909.53125 C 299.160156 911.875 286.582031 917.125 275.621094 924.746094 L 145.511719 999.863281 L 143.597656 996.550781 L 143.570312 996.578125 C 130.832031 974.574219 102.742188 967.03125 80.738281 979.742188 Z M 161.695312 1027.65625 L 291.78125 952.542969 C 292.589844 952.164062 293.371094 951.707031 294.125 951.195312 C 308.535156 941.148438 326.632812 937.757812 343.871094 942.386719 L 551.898438 998.140625 C 564.960938 1001.640625 575.492188 1009.640625 582.519531 1020.035156 C 589.578125 1030.511719 593.132812 1043.386719 592.164062 1056.582031 C 588.554688 1068.835938 580.394531 1078.640625 569.996094 1084.648438 C 559.332031 1090.816406 546.296875 1092.914062 533.503906 1089.496094 L 343.359375 1038.539062 C 334.738281 1036.25 325.90625 1041.367188 323.589844 1049.957031 C 321.300781 1058.574219 326.417969 1067.410156 335.007812 1069.726562 L 525.152344 1120.683594 C 546.511719 1126.390625 568.300781 1122.863281 586.15625 1112.550781 C 602.128906 1103.339844 614.949219 1088.6875 621.574219 1070.398438 L 811.746094 960.648438 C 835.957031 946.617188 872.558594 954.910156 884.867188 977.023438 L 887.425781 981.710938 L 887.453125 981.710938 C 894.535156 994.558594 895.882812 1009.207031 892.300781 1022.566406 C 888.746094 1035.84375 880.34375 1047.777344 867.925781 1055.34375 C 867.226562 1055.667969 866.527344 1056.070312 865.878906 1056.503906 L 865.90625 1056.527344 L 580.878906 1221.089844 C 572.394531 1225.640625 566.308594 1228.089844 556.933594 1229.140625 C 545.675781 1230.40625 541.097656 1228.816406 531.429688 1226.554688 L 287.445312 1168.945312 L 287.445312 1169 C 283.621094 1168.113281 279.445312 1168.597656 275.785156 1170.722656 L 252.21875 1184.324219 Z M 96.871094 1007.539062 C 103.332031 1003.792969 111.925781 1006.003906 115.804688 1012.601562 L 115.777344 1012.628906 L 247.910156 1241.476562 C 251.652344 1247.941406 249.335938 1256.558594 242.871094 1260.328125 C 224.664062 1270.996094 206.296875 1281.417969 188.011719 1292 L 187.984375 1291.976562 C 181.492188 1295.71875 172.902344 1293.429688 169.128906 1286.882812 L 37 1058.039062 C 33.199219 1051.628906 35.597656 1042.902344 42.007812 1039.183594 Z M 386.128906 920.277344 L 467.277344 942.011719 C 408.375 875.460938 411.472656 774.542969 474.332031 711.683594 C 539.992188 646.019531 646.484375 646.019531 712.148438 711.683594 C 777.808594 777.34375 777.808594 883.835938 712.148438 949.5 C 684.675781 976.96875 647.75 994.988281 606.652344 998.21875 C 614.300781 1008.375 619.6875 1020.144531 622.460938 1032.71875 L 793.511719 933.957031 C 795.398438 928.894531 797.792969 923.75 800.246094 918.417969 C 803.234375 911.953125 806.332031 905.246094 808.109375 899.726562 C 811.933594 887.847656 821.0625 879.203125 833.183594 876.054688 L 868.894531 866.761719 C 870.59375 866.332031 871.480469 865.117188 871.480469 863.3125 L 871.480469 797.839844 C 871.480469 796.0625 870.566406 794.851562 868.894531 794.394531 L 833.183594 785.101562 C 821.0625 781.949219 811.933594 773.304688 808.109375 761.425781 C 804.339844 749.683594 799.734375 738.589844 794.078125 727.574219 C 788.394531 716.53125 788.769531 703.816406 795.046875 693.097656 L 813.738281 661.265625 C 814.625 659.757812 814.4375 658.222656 813.171875 656.929688 L 813.144531 656.957031 L 766.847656 610.65625 C 765.554688 609.367188 764.074219 609.175781 762.566406 610.066406 L 730.730469 628.757812 C 720.011719 635.03125 707.378906 635.410156 696.3125 629.726562 C 685.539062 624.179688 674.066406 619.4375 662.402344 615.695312 C 650.527344 611.871094 641.878906 602.738281 638.730469 590.621094 L 629.4375 554.90625 C 629.007812 553.210938 627.792969 552.320312 625.988281 552.320312 L 560.515625 552.320312 C 558.738281 552.320312 557.527344 553.238281 557.070312 554.90625 L 547.777344 590.621094 C 544.625 602.738281 535.980469 611.871094 524.101562 615.695312 C 512.359375 619.464844 501.292969 624.070312 490.25 629.726562 C 479.207031 635.410156 466.496094 635.03125 455.773438 628.757812 L 423.941406 610.066406 C 422.40625 609.175781 420.953125 609.367188 419.660156 610.65625 L 373.359375 656.957031 C 372.070312 658.25 371.878906 659.730469 372.769531 661.238281 L 391.460938 693.070312 C 397.707031 703.710938 398.167969 716.664062 392.402344 727.519531 L 392.429688 727.519531 L 384.699219 744.164062 L 384.726562 744.164062 C 382.328125 749.953125 380.203125 755.691406 378.398438 761.375 C 374.574219 773.25 365.441406 781.894531 353.324219 785.046875 L 317.609375 794.339844 C 315.914062 794.769531 315.023438 795.980469 315.023438 797.785156 L 315.023438 863.261719 C 315.023438 865.039062 315.941406 866.25 317.609375 866.707031 L 353.324219 876 C 365.441406 879.148438 374.574219 887.796875 378.398438 899.671875 Z M 593.210938 694.769531 C 518.179688 694.769531 457.363281 755.582031 457.363281 830.617188 C 457.363281 905.652344 518.179688 966.464844 593.210938 966.464844 C 668.246094 966.464844 729.0625 905.652344 729.0625 830.617188 C 729.0625 755.582031 668.246094 694.769531 593.210938 694.769531 Z M 1012.90625 177.902344 C 1089.230469 177.902344 1151.125 239.769531 1151.125 316.121094 C 1151.125 392.449219 1089.257812 454.339844 1012.90625 454.339844 C 936.578125 454.339844 874.6875 392.476562 874.6875 316.121094 C 874.6875 239.769531 936.578125 177.902344 1012.90625 177.902344 Z M 892.328125 195.515625 C 958.933594 128.914062 1066.90625 128.914062 1133.484375 195.515625 C 1200.085938 262.121094 1200.085938 370.09375 1133.484375 436.671875 C 1066.878906 503.277344 958.90625 503.277344 892.328125 436.671875 C 825.722656 370.09375 825.722656 262.121094 892.328125 195.515625 Z M 942.609375 97.671875 C 954.597656 93.820312 963.320312 84.609375 966.5 72.382812 L 975.925781 36.101562 C 976.410156 34.269531 977.730469 33.273438 979.671875 33.273438 L 1046.167969 33.273438 C 1048.105469 33.273438 1049.425781 34.269531 1049.910156 36.101562 L 1059.335938 72.382812 C 1062.515625 84.609375 1071.242188 93.820312 1083.226562 97.671875 C 1095.078125 101.46875 1106.738281 106.316406 1117.699219 111.945312 C 1128.851562 117.683594 1141.589844 117.304688 1152.417969 110.949219 L 1184.734375 91.960938 C 1186.378906 90.992188 1187.996094 91.207031 1189.394531 92.609375 L 1236.394531 139.605469 C 1237.792969 141.003906 1238.007812 142.621094 1237.039062 144.265625 L 1218.050781 176.582031 C 1211.695312 187.382812 1211.34375 200.203125 1217.054688 211.355469 C 1222.628906 222.207031 1227.585938 234.164062 1231.328125 245.773438 C 1235.179688 257.757812 1244.390625 266.484375 1256.621094 269.664062 L 1292.898438 279.089844 C 1294.730469 279.574219 1295.726562 280.894531 1295.726562 282.832031 L 1295.726562 349.332031 C 1295.726562 351.269531 1294.730469 352.589844 1292.898438 353.074219 L 1256.621094 362.5 C 1244.390625 365.679688 1235.179688 374.40625 1231.328125 386.390625 C 1227.53125 398.214844 1222.710938 409.820312 1217.054688 420.808594 C 1211.320312 431.960938 1211.695312 444.78125 1218.023438 455.578125 L 1237.011719 487.898438 C 1237.980469 489.542969 1237.765625 491.15625 1236.367188 492.558594 L 1189.367188 539.582031 C 1187.96875 540.984375 1186.351562 541.199219 1184.707031 540.230469 L 1152.390625 521.242188 C 1141.589844 514.886719 1128.769531 514.535156 1117.621094 520.246094 L 1117.621094 520.273438 C 1106.792969 525.820312 1094.753906 530.800781 1083.199219 534.519531 C 1071.214844 538.371094 1062.488281 547.582031 1059.308594 559.808594 L 1049.882812 596.085938 C 1049.398438 597.917969 1048.078125 598.914062 1046.140625 598.914062 L 979.644531 598.914062 C 977.703125 598.914062 976.382812 597.917969 975.898438 596.085938 L 966.472656 559.808594 C 963.296875 547.582031 954.570312 538.371094 942.582031 534.519531 C 933.023438 531.449219 917.5625 525.390625 908.972656 520.675781 C 897.6875 514.507812 884.515625 514.695312 873.421875 521.214844 L 841.101562 540.203125 C 839.457031 541.171875 837.84375 540.957031 836.441406 539.554688 L 789.417969 492.53125 C 788.015625 491.128906 787.800781 489.515625 788.769531 487.871094 L 807.757812 455.550781 C 814.113281 444.753906 814.464844 431.933594 808.726562 420.78125 C 802.964844 409.578125 798.304688 398.320312 794.453125 386.363281 C 790.601562 374.378906 781.390625 365.652344 769.164062 362.472656 L 732.886719 353.046875 C 731.054688 352.5625 730.058594 351.242188 730.058594 349.304688 L 730.058594 282.804688 C 730.058594 280.867188 731.054688 279.546875 732.886719 279.0625 L 769.164062 269.636719 C 781.390625 266.457031 790.601562 257.730469 794.453125 245.746094 C 798.25 233.898438 803.097656 222.234375 808.726562 211.273438 C 814.464844 200.121094 814.085938 187.382812 807.730469 176.558594 L 788.742188 144.238281 C 787.746094 142.539062 787.988281 140.925781 789.390625 139.578125 L 836.414062 92.582031 C 837.816406 91.179688 839.429688 90.964844 841.074219 91.933594 L 873.394531 110.921875 C 884.195312 117.277344 897.011719 117.628906 908.164062 111.917969 C 913.605469 109.117188 919.234375 106.503906 925.105469 104.082031 L 925.105469 104.054688 C 930.8125 101.738281 936.660156 99.582031 942.609375 97.671875 Z M 912.824219 74.320312 C 919.367188 71.628906 926.019531 69.175781 932.78125 66.996094 L 935.339844 64.300781 L 944.765625 28.023438 C 948.914062 12 963.1875 0.957031 979.671875 0.957031 L 1046.167969 0.957031 C 1062.648438 0.957031 1076.925781 11.972656 1081.097656 28.023438 C 1082.3125 32.683594 1089.988281 64.464844 1091.441406 66.023438 C 1091.816406 66.429688 1092.382812 66.753906 1093.082031 66.96875 C 1106.683594 71.332031 1119.613281 76.71875 1132.351562 83.261719 L 1136.121094 83.152344 L 1168.441406 64.167969 C 1182.714844 55.789062 1200.625 58.105469 1212.234375 69.742188 L 1259.257812 116.765625 C 1270.867188 128.375 1273.210938 146.285156 1264.832031 160.558594 C 1262.464844 164.570312 1245.308594 192.796875 1245.253906 194.738281 C 1245.226562 195.273438 1245.414062 195.921875 1245.765625 196.59375 C 1252.363281 209.414062 1257.617188 222.101562 1262.058594 235.945312 L 1264.753906 238.503906 L 1301.03125 247.929688 C 1317.054688 252.101562 1328.097656 266.351562 1328.097656 282.859375 L 1328.097656 349.355469 C 1328.097656 365.839844 1317.082031 380.113281 1301.03125 384.289062 C 1296.371094 385.5 1264.589844 393.148438 1263.027344 394.632812 L 1254.761719 416.285156 C 1252.066406 422.777344 1249.078125 429.238281 1245.792969 435.621094 L 1245.898438 439.339844 L 1264.886719 471.660156 C 1273.261719 485.933594 1270.949219 503.84375 1259.3125 515.449219 L 1212.234375 562.449219 C 1200.625 574.054688 1182.714844 576.398438 1168.441406 568.023438 C 1164.429688 565.652344 1136.203125 548.496094 1134.265625 548.445312 C 1133.726562 548.417969 1133.078125 548.605469 1132.40625 548.957031 L 1132.378906 548.929688 C 1120.125 555.339844 1106.28125 560.996094 1093.058594 565.25 L 1090.496094 567.941406 L 1081.070312 604.222656 C 1076.898438 620.273438 1062.648438 631.289062 1046.140625 631.289062 L 979.644531 631.289062 C 963.160156 631.289062 948.886719 620.273438 944.710938 604.222656 C 943.5 599.5625 935.851562 567.78125 934.371094 566.21875 C 933.992188 565.816406 933.425781 565.492188 932.726562 565.277344 C 919.503906 561.019531 905.765625 555.367188 893.378906 548.980469 L 889.660156 549.089844 L 857.339844 568.078125 C 843.066406 576.453125 825.15625 574.136719 813.550781 562.503906 L 766.523438 515.476562 C 754.917969 503.871094 752.574219 485.960938 760.949219 471.683594 C 763.320312 467.671875 780.476562 439.445312 780.53125 437.507812 C 780.554688 436.96875 780.367188 436.324219 780.019531 435.648438 C 773.609375 423.179688 768.058594 409.792969 763.722656 396.300781 L 761.03125 393.742188 L 724.753906 384.316406 C 708.726562 380.140625 697.683594 365.894531 697.683594 349.382812 L 697.683594 282.886719 C 697.683594 266.40625 708.699219 252.128906 724.753906 247.957031 C 729.410156 246.742188 761.191406 239.066406 762.753906 237.613281 C 763.15625 237.234375 763.480469 236.671875 763.695312 235.96875 C 768.03125 222.421875 773.472656 209.386719 779.992188 196.703125 L 779.882812 192.933594 L 760.894531 160.613281 C 752.546875 146.390625 754.835938 128.429688 766.46875 116.820312 L 813.496094 69.824219 C 825.101562 58.214844 843.011719 55.871094 857.289062 64.246094 C 861.300781 66.617188 889.527344 83.773438 891.464844 83.828125 C 892.003906 83.855469 892.652344 83.664062 893.324219 83.316406 C 899.707031 80.03125 906.144531 77.039062 912.660156 74.347656 L 912.660156 74.375 Z M 726.933594 1265.257812 C 718.074219 1266.171875 710.15625 1259.710938 709.265625 1250.875 C 708.351562 1242.015625 714.8125 1234.097656 723.648438 1233.207031 C 969.515625 1207.675781 1169.332031 1016.640625 1206.390625 772.875 C 1207.601562 764.847656 1214.496094 759.109375 1222.359375 759.109375 L 1279.429688 759.109375 L 1180.832031 629.269531 L 1082.230469 759.109375 L 1124.757812 759.109375 C 1134.855469 759.109375 1142.988281 768.1875 1140.324219 779.582031 C 1130.0625 833.605469 1110.859375 884.429688 1084.277344 930.429688 C 1056.859375 977.886719 1021.605469 1020.25 980.261719 1055.773438 C 973.503906 1061.566406 963.320312 1060.757812 957.53125 1053.996094 C 951.742188 1047.238281 952.550781 1037.058594 959.308594 1031.265625 C 1031.675781 969.214844 1083.199219 884.914062 1104.90625 791.429688 L 1049.75 791.429688 L 1049.75 791.351562 C 1036.847656 791.351562 1028.824219 776.242188 1036.929688 765.546875 L 1167.796875 593.179688 C 1174.125 584.667969 1187.023438 584.265625 1193.597656 592.9375 L 1323.707031 764.308594 C 1333.835938 776.402344 1324.597656 791.429688 1311.832031 791.429688 L 1235.960938 791.429688 C 1190.957031 1043.84375 983.171875 1238.242188 726.933594 1265.257812 Z M 665.5 109.359375 C 383.542969 109.359375 143.949219 312.21875 94.984375 586.472656 L 19.117188 586.472656 C 6.347656 586.472656 -2.890625 601.5 7.238281 613.59375 L 137.351562 784.964844 C 143.949219 793.640625 156.820312 793.234375 163.152344 784.722656 L 294.015625 612.355469 C 302.152344 601.664062 294.097656 586.527344 281.199219 586.554688 L 281.199219 586.472656 L 226.09375 586.472656 C 264.203125 422.34375 392.539062 291.640625 556.125 251.160156 C 564.773438 249.03125 570.050781 240.304688 567.921875 231.660156 C 565.796875 223.015625 557.070312 217.738281 548.421875 219.863281 C 457.175781 242.570312 376.1875 291.210938 313.707031 357.464844 C 251.8125 423.125 208.101562 506.132812 190.621094 598.457031 C 188.0625 609.714844 196.117188 618.820312 206.242188 618.820312 L 248.769531 618.820312 L 150.167969 748.660156 L 51.570312 618.792969 L 108.640625 618.792969 C 116.503906 618.792969 123.398438 613.054688 124.609375 605.027344 C 164.847656 340.46875 394.394531 141.679688 665.5 141.679688 C 674.414062 141.679688 681.660156 134.433594 681.660156 125.519531 C 681.660156 116.605469 674.414062 109.359375 665.5 109.359375 Z M 665.5 109.359375 " fill-opacity="1" fill-rule="evenodd"/></g></g></g></svg>